<svg xmlns="http://www.w3.org/2000/svg" xmlns:xlink="http://www.w3.org/1999/xlink" width="600" zoomAndPan="magnify" viewBox="0 0 450 449.999984" height="600" preserveAspectRatio="xMidYMid meet" version="1.0"><defs><g/></defs><g fill="#000000" fill-opacity="1"><g transform="translate(104.697657, 231.792637)"><g><path d="M 1.796875 -5.78125 C 1.710938 -6.5 1.648438 -7.484375 1.609375 -8.734375 C 1.566406 -9.992188 1.539062 -11.414062 1.53125 -13 C 1.519531 -14.582031 1.53125 -16.222656 1.5625 -17.921875 C 1.59375 -19.617188 1.640625 -21.28125 1.703125 -22.90625 C 1.765625 -24.53125 1.835938 -26.019531 1.921875 -27.375 C 2.003906 -28.726562 2.097656 -29.835938 2.203125 -30.703125 C 3.234375 -30.804688 4.484375 -30.882812 5.953125 -30.9375 C 7.429688 -30.988281 9.019531 -31.019531 10.71875 -31.03125 C 12.414062 -31.039062 14.117188 -31.03125 15.828125 -31 C 17.546875 -30.96875 19.164062 -30.921875 20.6875 -30.859375 C 22.21875 -30.796875 23.53125 -30.722656 24.625 -30.640625 C 24.8125 -30.378906 24.976562 -29.96875 25.125 -29.40625 C 25.269531 -28.84375 25.347656 -28.207031 25.359375 -27.5 C 25.367188 -26.800781 25.28125 -26.085938 25.09375 -25.359375 C 24.90625 -24.640625 24.578125 -23.972656 24.109375 -23.359375 C 23.640625 -22.753906 22.992188 -22.265625 22.171875 -21.890625 C 21.359375 -21.515625 20.332031 -21.328125 19.09375 -21.328125 C 18.675781 -21.328125 18.289062 -21.328125 17.9375 -21.328125 C 17.59375 -21.328125 17.203125 -21.328125 16.765625 -21.328125 C 16.328125 -21.328125 15.785156 -21.328125 15.140625 -21.328125 C 14.503906 -21.328125 13.691406 -21.328125 12.703125 -21.328125 C 12.703125 -21.160156 12.703125 -20.816406 12.703125 -20.296875 C 12.703125 -19.785156 12.703125 -19.265625 12.703125 -18.734375 C 12.703125 -18.210938 12.703125 -17.847656 12.703125 -17.640625 C 13.160156 -17.640625 13.785156 -17.648438 14.578125 -17.671875 C 15.378906 -17.691406 16.242188 -17.703125 17.171875 -17.703125 C 18.097656 -17.703125 19.007812 -17.660156 19.90625 -17.578125 C 20.8125 -17.492188 21.597656 -17.347656 22.265625 -17.140625 C 22.742188 -16.109375 23.007812 -15.070312 23.0625 -14.03125 C 23.113281 -13 22.960938 -12.039062 22.609375 -11.15625 C 22.253906 -10.28125 21.703125 -9.566406 20.953125 -9.015625 C 20.210938 -8.472656 19.273438 -8.179688 18.140625 -8.140625 C 17.617188 -8.117188 17.128906 -8.109375 16.671875 -8.109375 C 16.210938 -8.109375 15.679688 -8.113281 15.078125 -8.125 C 14.484375 -8.132812 13.703125 -8.140625 12.734375 -8.140625 C 12.734375 -7.992188 12.734375 -7.691406 12.734375 -7.234375 C 12.734375 -6.773438 12.734375 -6.226562 12.734375 -5.59375 C 12.734375 -4.96875 12.726562 -4.328125 12.71875 -3.671875 C 12.707031 -3.023438 12.691406 -2.429688 12.671875 -1.890625 C 12.648438 -1.359375 12.628906 -0.96875 12.609375 -0.71875 C 12.066406 -0.320312 11.375 -0.0390625 10.53125 0.125 C 9.695312 0.289062 8.8125 0.320312 7.875 0.21875 C 6.945312 0.113281 6.046875 -0.15625 5.171875 -0.59375 C 4.304688 -1.039062 3.566406 -1.6875 2.953125 -2.53125 C 2.347656 -3.382812 1.960938 -4.46875 1.796875 -5.78125 Z M 1.796875 -5.78125 "/></g></g></g><g fill="#000000" fill-opacity="1"><g transform="translate(131.149632, 231.792637)"><g><path d="M 17.171875 -31.671875 C 19.285156 -31.691406 21.132812 -31.453125 22.71875 -30.953125 C 24.300781 -30.460938 25.648438 -29.820312 26.765625 -29.03125 C 27.878906 -28.25 28.800781 -27.410156 29.53125 -26.515625 C 30.269531 -25.628906 30.851562 -24.785156 31.28125 -23.984375 C 31.707031 -23.191406 32.015625 -22.546875 32.203125 -22.046875 C 32.921875 -20.054688 33.347656 -18.050781 33.484375 -16.03125 C 33.617188 -14.019531 33.378906 -11.988281 32.765625 -9.9375 C 31.066406 -4.488281 27.453125 -1.113281 21.921875 0.1875 C 19.679688 0.726562 17.472656 0.898438 15.296875 0.703125 C 13.128906 0.503906 11.007812 -0.132812 8.9375 -1.21875 C 6.976562 -2.226562 5.410156 -3.546875 4.234375 -5.171875 C 3.066406 -6.796875 2.242188 -8.675781 1.765625 -10.8125 C 1.453125 -12.15625 1.269531 -13.53125 1.21875 -14.9375 C 1.175781 -16.34375 1.257812 -17.707031 1.46875 -19.03125 C 1.6875 -20.351562 2.046875 -21.546875 2.546875 -22.609375 C 3.046875 -23.703125 3.6875 -24.78125 4.46875 -25.84375 C 5.257812 -26.914062 6.234375 -27.890625 7.390625 -28.765625 C 8.546875 -29.648438 9.929688 -30.351562 11.546875 -30.875 C 13.160156 -31.40625 15.035156 -31.671875 17.171875 -31.671875 Z M 17.328125 -20.5625 C 16.554688 -20.5625 15.84375 -20.347656 15.1875 -19.921875 C 14.539062 -19.492188 14.03125 -18.859375 13.65625 -18.015625 C 13.289062 -17.179688 13.148438 -16.144531 13.234375 -14.90625 C 13.316406 -13.707031 13.585938 -12.753906 14.046875 -12.046875 C 14.515625 -11.347656 15.0625 -10.847656 15.6875 -10.546875 C 16.320312 -10.242188 16.910156 -10.113281 17.453125 -10.15625 C 18.015625 -10.195312 18.578125 -10.375 19.140625 -10.6875 C 19.710938 -11.007812 20.195312 -11.523438 20.59375 -12.234375 C 21 -12.941406 21.234375 -13.875 21.296875 -15.03125 C 21.378906 -16.207031 21.238281 -17.203125 20.875 -18.015625 C 20.519531 -18.835938 20.023438 -19.46875 19.390625 -19.90625 C 18.753906 -20.34375 18.066406 -20.5625 17.328125 -20.5625 Z M 17.328125 -20.5625 "/></g></g></g><g fill="#000000" fill-opacity="1"><g transform="translate(164.835439, 231.792637)"><g><path d="M 17.171875 -31.671875 C 19.285156 -31.691406 21.132812 -31.453125 22.71875 -30.953125 C 24.300781 -30.460938 25.648438 -29.820312 26.765625 -29.03125 C 27.878906 -28.25 28.800781 -27.410156 29.53125 -26.515625 C 30.269531 -25.628906 30.851562 -24.785156 31.28125 -23.984375 C 31.707031 -23.191406 32.015625 -22.546875 32.203125 -22.046875 C 32.921875 -20.054688 33.347656 -18.050781 33.484375 -16.03125 C 33.617188 -14.019531 33.378906 -11.988281 32.765625 -9.9375 C 31.066406 -4.488281 27.453125 -1.113281 21.921875 0.1875 C 19.679688 0.726562 17.472656 0.898438 15.296875 0.703125 C 13.128906 0.503906 11.007812 -0.132812 8.9375 -1.21875 C 6.976562 -2.226562 5.410156 -3.546875 4.234375 -5.171875 C 3.066406 -6.796875 2.242188 -8.675781 1.765625 -10.8125 C 1.453125 -12.15625 1.269531 -13.53125 1.21875 -14.9375 C 1.175781 -16.34375 1.257812 -17.707031 1.46875 -19.03125 C 1.6875 -20.351562 2.046875 -21.546875 2.546875 -22.609375 C 3.046875 -23.703125 3.6875 -24.78125 4.46875 -25.84375 C 5.257812 -26.914062 6.234375 -27.890625 7.390625 -28.765625 C 8.546875 -29.648438 9.929688 -30.351562 11.546875 -30.875 C 13.160156 -31.40625 15.035156 -31.671875 17.171875 -31.671875 Z M 17.328125 -20.5625 C 16.554688 -20.5625 15.84375 -20.347656 15.1875 -19.921875 C 14.539062 -19.492188 14.03125 -18.859375 13.65625 -18.015625 C 13.289062 -17.179688 13.148438 -16.144531 13.234375 -14.90625 C 13.316406 -13.707031 13.585938 -12.753906 14.046875 -12.046875 C 14.515625 -11.347656 15.0625 -10.847656 15.6875 -10.546875 C 16.320312 -10.242188 16.910156 -10.113281 17.453125 -10.15625 C 18.015625 -10.195312 18.578125 -10.375 19.140625 -10.6875 C 19.710938 -11.007812 20.195312 -11.523438 20.59375 -12.234375 C 21 -12.941406 21.234375 -13.875 21.296875 -15.03125 C 21.378906 -16.207031 21.238281 -17.203125 20.875 -18.015625 C 20.519531 -18.835938 20.023438 -19.46875 19.390625 -19.90625 C 18.753906 -20.34375 18.066406 -20.5625 17.328125 -20.5625 Z M 17.328125 -20.5625 "/></g></g></g><g fill="#000000" fill-opacity="1"><g transform="translate(198.521246, 231.792637)"><g><path d="M 29.96875 -16.265625 C 29.96875 -15.316406 29.875 -14.242188 29.6875 -13.046875 C 29.5 -11.859375 29.175781 -10.628906 28.71875 -9.359375 C 28.269531 -8.085938 27.648438 -6.851562 26.859375 -5.65625 C 26.078125 -4.46875 25.082031 -3.398438 23.875 -2.453125 C 22.675781 -1.503906 21.238281 -0.75 19.5625 -0.1875 C 17.882812 0.375 15.914062 0.65625 13.65625 0.65625 C 11.175781 0.65625 9.113281 0.398438 7.46875 -0.109375 C 5.820312 -0.617188 4.5625 -1.453125 3.6875 -2.609375 C 2.820312 -3.765625 2.296875 -5.335938 2.109375 -7.328125 C 1.878906 -9.847656 1.769531 -13.007812 1.78125 -16.8125 C 1.789062 -20.613281 1.929688 -24.851562 2.203125 -29.53125 C 3.234375 -30.132812 4.460938 -30.601562 5.890625 -30.9375 C 7.328125 -31.28125 8.84375 -31.5 10.4375 -31.59375 C 12.03125 -31.6875 13.601562 -31.671875 15.15625 -31.546875 C 16.707031 -31.421875 18.128906 -31.210938 19.421875 -30.921875 C 20.710938 -30.640625 21.773438 -30.28125 22.609375 -29.84375 C 25.109375 -28.519531 26.957031 -26.757812 28.15625 -24.5625 C 29.363281 -22.363281 29.96875 -19.597656 29.96875 -16.265625 Z M 14.3125 -9.1875 C 14.914062 -9.207031 15.507812 -9.273438 16.09375 -9.390625 C 16.6875 -9.503906 17.226562 -9.773438 17.71875 -10.203125 C 18.21875 -10.628906 18.613281 -11.289062 18.90625 -12.1875 C 19.195312 -13.082031 19.34375 -14.320312 19.34375 -15.90625 C 19.34375 -17.125 19.203125 -18.097656 18.921875 -18.828125 C 18.640625 -19.566406 18.257812 -20.117188 17.78125 -20.484375 C 17.3125 -20.859375 16.789062 -21.097656 16.21875 -21.203125 C 15.65625 -21.304688 15.078125 -21.335938 14.484375 -21.296875 C 13.890625 -21.253906 13.347656 -21.179688 12.859375 -21.078125 C 12.859375 -20.585938 12.851562 -19.921875 12.84375 -19.078125 C 12.832031 -18.242188 12.828125 -17.3125 12.828125 -16.28125 C 12.828125 -15.257812 12.828125 -14.222656 12.828125 -13.171875 C 12.828125 -12.128906 12.835938 -11.175781 12.859375 -10.3125 C 12.878906 -9.832031 13.066406 -9.523438 13.421875 -9.390625 C 13.785156 -9.253906 14.082031 -9.1875 14.3125 -9.1875 Z M 14.3125 -9.1875 "/></g></g></g><g fill="#000000" fill-opacity="1"><g transform="translate(229.537124, 231.792637)"><g/></g></g><g fill="#000000" fill-opacity="1"><g transform="translate(245.184778, 231.792637)"><g><path d="M 0.46875 -9.375 C 0.71875 -10.613281 1.039062 -12.003906 1.4375 -13.546875 C 1.84375 -15.097656 2.300781 -16.6875 2.8125 -18.3125 C 3.320312 -19.9375 3.835938 -21.507812 4.359375 -23.03125 C 4.890625 -24.550781 5.40625 -25.941406 5.90625 -27.203125 C 6.414062 -28.460938 6.867188 -29.476562 7.265625 -30.25 C 8.117188 -30.53125 9.132812 -30.796875 10.3125 -31.046875 C 11.488281 -31.296875 12.738281 -31.4375 14.0625 -31.46875 C 15.382812 -31.5 16.695312 -31.328125 18 -30.953125 C 19.3125 -30.585938 20.515625 -29.925781 21.609375 -28.96875 C 22.710938 -28.019531 23.613281 -26.6875 24.3125 -24.96875 C 24.644531 -24.132812 25.023438 -23.070312 25.453125 -21.78125 C 25.890625 -20.488281 26.347656 -19.054688 26.828125 -17.484375 C 27.304688 -15.910156 27.769531 -14.289062 28.21875 -12.625 C 28.675781 -10.957031 29.097656 -9.332031 29.484375 -7.75 C 29.867188 -6.164062 30.175781 -4.722656 30.40625 -3.421875 C 30.34375 -2.859375 30.050781 -2.300781 29.53125 -1.75 C 29.007812 -1.207031 28.347656 -0.742188 27.546875 -0.359375 C 26.753906 0.0234375 25.894531 0.28125 24.96875 0.40625 C 24.050781 0.53125 23.132812 0.457031 22.21875 0.1875 C 21.3125 -0.0820312 20.488281 -0.609375 19.75 -1.390625 C 19.019531 -2.179688 18.453125 -3.28125 18.046875 -4.6875 C 17.066406 -4.726562 16.050781 -4.738281 15 -4.71875 C 13.945312 -4.695312 12.921875 -4.695312 11.921875 -4.71875 C 11.648438 -4.070312 11.394531 -3.363281 11.15625 -2.59375 C 10.925781 -1.832031 10.695312 -1.050781 10.46875 -0.25 C 8.5625 0.457031 6.90625 0.710938 5.5 0.515625 C 4.09375 0.316406 2.957031 -0.222656 2.09375 -1.109375 C 1.238281 -2.003906 0.671875 -3.164062 0.390625 -4.59375 C 0.109375 -6.019531 0.132812 -7.613281 0.46875 -9.375 Z M 13.140625 -13.59375 C 13.796875 -13.59375 14.429688 -13.59375 15.046875 -13.59375 C 15.671875 -13.59375 16.304688 -13.59375 16.953125 -13.59375 C 16.660156 -14.863281 16.359375 -16.113281 16.046875 -17.34375 C 15.742188 -18.570312 15.445312 -19.804688 15.15625 -21.046875 C 15.09375 -21.023438 15 -21.015625 14.875 -21.015625 C 14.601562 -19.796875 14.316406 -18.578125 14.015625 -17.359375 C 13.710938 -16.140625 13.421875 -14.882812 13.140625 -13.59375 Z M 13.140625 -13.59375 "/></g></g></g><g fill="#000000" fill-opacity="1"><g transform="translate(274.555019, 231.792637)"><g><path d="M 24.5 -11 C 23.320312 -10.125 22.125 -9.515625 20.90625 -9.171875 C 19.695312 -8.828125 18.566406 -8.65625 17.515625 -8.65625 C 16.472656 -8.65625 15.613281 -8.722656 14.9375 -8.859375 C 14.269531 -8.992188 13.875 -9.101562 13.75 -9.1875 C 13.726562 -9.1875 13.71875 -9.1875 13.71875 -9.1875 C 13.71875 -9.1875 13.707031 -9.1875 13.6875 -9.1875 C 13.6875 -9.1875 13.644531 -9.164062 13.5625 -9.125 C 13.5625 -9.125 13.554688 -9.117188 13.546875 -9.109375 C 13.535156 -9.097656 13.53125 -9.082031 13.53125 -9.0625 C 13.53125 -8.9375 13.53125 -8.613281 13.53125 -8.09375 C 13.53125 -7.582031 13.519531 -6.945312 13.5 -6.1875 C 13.488281 -5.4375 13.460938 -4.628906 13.421875 -3.765625 C 13.378906 -2.910156 13.316406 -2.0625 13.234375 -1.21875 C 12.710938 -0.65625 12.046875 -0.238281 11.234375 0.03125 C 10.429688 0.300781 9.5625 0.394531 8.625 0.3125 C 7.695312 0.226562 6.796875 -0.046875 5.921875 -0.515625 C 5.054688 -0.992188 4.285156 -1.6875 3.609375 -2.59375 C 2.941406 -3.507812 2.472656 -4.675781 2.203125 -6.09375 C 2.117188 -6.539062 2.046875 -7.320312 1.984375 -8.4375 C 1.921875 -9.5625 1.875 -10.867188 1.84375 -12.359375 C 1.8125 -13.847656 1.800781 -15.421875 1.8125 -17.078125 C 1.820312 -18.734375 1.851562 -20.335938 1.90625 -21.890625 C 1.957031 -23.441406 2.035156 -24.828125 2.140625 -26.046875 C 2.242188 -27.273438 2.378906 -28.195312 2.546875 -28.8125 C 3.003906 -29.25 3.710938 -29.660156 4.671875 -30.046875 C 5.640625 -30.429688 6.773438 -30.75 8.078125 -31 C 9.378906 -31.257812 10.769531 -31.441406 12.25 -31.546875 C 13.726562 -31.648438 15.210938 -31.640625 16.703125 -31.515625 C 18.191406 -31.390625 19.613281 -31.140625 20.96875 -30.765625 C 22.332031 -30.398438 23.53125 -29.863281 24.5625 -29.15625 C 25.550781 -28.5 26.378906 -27.601562 27.046875 -26.46875 C 27.710938 -25.34375 28.179688 -24.085938 28.453125 -22.703125 C 28.734375 -21.316406 28.789062 -19.894531 28.625 -18.4375 C 28.457031 -16.988281 28.035156 -15.617188 27.359375 -14.328125 C 26.691406 -13.035156 25.738281 -11.925781 24.5 -11 Z M 18.328125 -19.8125 C 18.328125 -20.25 18.128906 -20.648438 17.734375 -21.015625 C 17.335938 -21.390625 16.828125 -21.628906 16.203125 -21.734375 C 15.585938 -21.835938 14.9375 -21.679688 14.25 -21.265625 C 14.25 -20.628906 14.25 -20.0625 14.25 -19.5625 C 14.25 -19.0625 14.257812 -18.546875 14.28125 -18.015625 C 14.28125 -17.953125 14.320312 -17.875 14.40625 -17.78125 C 14.488281 -17.6875 14.5625 -17.640625 14.625 -17.640625 C 15.019531 -17.640625 15.40625 -17.640625 15.78125 -17.640625 C 16.164062 -17.640625 16.554688 -17.679688 16.953125 -17.765625 C 17.867188 -17.910156 18.328125 -18.59375 18.328125 -19.8125 Z M 18.328125 -19.8125 "/></g></g></g><g fill="#000000" fill-opacity="1"><g transform="translate(302.838586, 231.792637)"><g><path d="M 24.5 -11 C 23.320312 -10.125 22.125 -9.515625 20.90625 -9.171875 C 19.695312 -8.828125 18.566406 -8.65625 17.515625 -8.65625 C 16.472656 -8.65625 15.613281 -8.722656 14.9375 -8.859375 C 14.269531 -8.992188 13.875 -9.101562 13.75 -9.1875 C 13.726562 -9.1875 13.71875 -9.1875 13.71875 -9.1875 C 13.71875 -9.1875 13.707031 -9.1875 13.6875 -9.1875 C 13.6875 -9.1875 13.644531 -9.164062 13.5625 -9.125 C 13.5625 -9.125 13.554688 -9.117188 13.546875 -9.109375 C 13.535156 -9.097656 13.53125 -9.082031 13.53125 -9.0625 C 13.53125 -8.9375 13.53125 -8.613281 13.53125 -8.09375 C 13.53125 -7.582031 13.519531 -6.945312 13.5 -6.1875 C 13.488281 -5.4375 13.460938 -4.628906 13.421875 -3.765625 C 13.378906 -2.910156 13.316406 -2.0625 13.234375 -1.21875 C 12.710938 -0.65625 12.046875 -0.238281 11.234375 0.03125 C 10.429688 0.300781 9.5625 0.394531 8.625 0.3125 C 7.695312 0.226562 6.796875 -0.046875 5.921875 -0.515625 C 5.054688 -0.992188 4.285156 -1.6875 3.609375 -2.59375 C 2.941406 -3.507812 2.472656 -4.675781 2.203125 -6.09375 C 2.117188 -6.539062 2.046875 -7.320312 1.984375 -8.4375 C 1.921875 -9.5625 1.875 -10.867188 1.84375 -12.359375 C 1.8125 -13.847656 1.800781 -15.421875 1.8125 -17.078125 C 1.820312 -18.734375 1.851562 -20.335938 1.90625 -21.890625 C 1.957031 -23.441406 2.035156 -24.828125 2.140625 -26.046875 C 2.242188 -27.273438 2.378906 -28.195312 2.546875 -28.8125 C 3.003906 -29.25 3.710938 -29.660156 4.671875 -30.046875 C 5.640625 -30.429688 6.773438 -30.75 8.078125 -31 C 9.378906 -31.257812 10.769531 -31.441406 12.25 -31.546875 C 13.726562 -31.648438 15.210938 -31.640625 16.703125 -31.515625 C 18.191406 -31.390625 19.613281 -31.140625 20.96875 -30.765625 C 22.332031 -30.398438 23.53125 -29.863281 24.5625 -29.15625 C 25.550781 -28.5 26.378906 -27.601562 27.046875 -26.46875 C 27.710938 -25.34375 28.179688 -24.085938 28.453125 -22.703125 C 28.734375 -21.316406 28.789062 -19.894531 28.625 -18.4375 C 28.457031 -16.988281 28.035156 -15.617188 27.359375 -14.328125 C 26.691406 -13.035156 25.738281 -11.925781 24.5 -11 Z M 18.328125 -19.8125 C 18.328125 -20.25 18.128906 -20.648438 17.734375 -21.015625 C 17.335938 -21.390625 16.828125 -21.628906 16.203125 -21.734375 C 15.585938 -21.835938 14.9375 -21.679688 14.25 -21.265625 C 14.25 -20.628906 14.25 -20.0625 14.25 -19.5625 C 14.25 -19.0625 14.257812 -18.546875 14.28125 -18.015625 C 14.28125 -17.953125 14.320312 -17.875 14.40625 -17.78125 C 14.488281 -17.6875 14.5625 -17.640625 14.625 -17.640625 C 15.019531 -17.640625 15.40625 -17.640625 15.78125 -17.640625 C 16.164062 -17.640625 16.554688 -17.679688 16.953125 -17.765625 C 17.867188 -17.910156 18.328125 -18.59375 18.328125 -19.8125 Z M 18.328125 -19.8125 "/></g></g></g><g fill="#000000" fill-opacity="1"><g transform="translate(332.9541, 231.792637)"><g><path d="M 6.171875 0.34375 C 5.910156 0.300781 5.640625 0.265625 5.359375 0.234375 C 5.078125 0.203125 4.789062 0.15625 4.5 0.09375 C 3.445312 -0.15625 2.609375 -0.617188 1.984375 -1.296875 C 1.367188 -1.984375 1.007812 -2.863281 0.90625 -3.9375 C 0.863281 -4.394531 0.851562 -4.851562 0.875 -5.3125 C 0.894531 -5.769531 0.925781 -6.222656 0.96875 -6.671875 C 1.132812 -7.523438 1.472656 -8.222656 1.984375 -8.765625 C 2.503906 -9.316406 3.164062 -9.726562 3.96875 -10 C 5.175781 -10.375 6.390625 -10.4375 7.609375 -10.1875 C 8.847656 -9.914062 9.820312 -9.285156 10.53125 -8.296875 C 11.25 -7.316406 11.554688 -6.175781 11.453125 -4.875 C 11.429688 -4.519531 11.382812 -4.148438 11.3125 -3.765625 C 11.238281 -3.390625 11.132812 -3.023438 11 -2.671875 C 10.625 -1.710938 10.015625 -0.972656 9.171875 -0.453125 C 8.335938 0.0546875 7.335938 0.320312 6.171875 0.34375 Z M 11.765625 -25.40625 C 11.765625 -24.925781 11.726562 -24.269531 11.65625 -23.4375 C 11.582031 -22.613281 11.476562 -21.703125 11.34375 -20.703125 C 11.207031 -19.710938 11.050781 -18.710938 10.875 -17.703125 C 10.707031 -16.703125 10.53125 -15.765625 10.34375 -14.890625 C 10.15625 -14.023438 9.957031 -13.328125 9.75 -12.796875 C 9.144531 -12.109375 8.429688 -11.613281 7.609375 -11.3125 C 6.796875 -11.019531 5.984375 -10.9375 5.171875 -11.0625 C 4.367188 -11.195312 3.675781 -11.570312 3.09375 -12.1875 C 2.519531 -12.800781 2.148438 -13.675781 1.984375 -14.8125 C 1.503906 -17.851562 1.25 -20.660156 1.21875 -23.234375 C 1.195312 -25.816406 1.316406 -28.039062 1.578125 -29.90625 C 2.117188 -30.382812 2.8125 -30.757812 3.65625 -31.03125 C 4.507812 -31.3125 5.398438 -31.441406 6.328125 -31.421875 C 7.265625 -31.398438 8.144531 -31.1875 8.96875 -30.78125 C 9.800781 -30.382812 10.472656 -29.75 10.984375 -28.875 C 11.503906 -28.007812 11.765625 -26.851562 11.765625 -25.40625 Z M 11.765625 -25.40625 "/></g></g></g></svg>